<?xml version="1.0" standalone="no"?>
<!DOCTYPE svg PUBLIC "-//W3C//DTD SVG 20010904//EN"
 "http://www.w3.org/TR/2001/REC-SVG-20010904/DTD/svg10.dtd">
<svg version="1.0" xmlns="http://www.w3.org/2000/svg"
 width="700.000000pt" height="700.000000pt" viewBox="0 0 700.000000 700.000000"
 preserveAspectRatio="xMidYMid meet">
<metadata>
Created by potrace 1.14, written by Peter Selinger 2001-2017
</metadata>
<g transform="translate(0.000000,700.000000) scale(0.100000,-0.100000)"
fill="#000000" stroke="none">
<path d="M312 6664 c-142 -38 -259 -156 -297 -299 -13 -53 -15 -359 -15 -2876
0 -2477 2 -2822 15 -2861 56 -160 174 -270 324 -298 36 -7 1096 -10 3175 -9
3401 0 3174 -3 3275 56 86 50 170 158 199 254 11 40 14 5645 2 5709 -28 152
-146 279 -298 324 -48 14 -380 15 -3190 15 -2674 -1 -3145 -3 -3190 -15z
m4648 -549 c79 -41 97 -84 95 -230 -1 -118 -7 -145 -38 -187 -32 -44 -86 -58
-214 -55 -123 2 -146 11 -190 77 -21 30 -23 45 -23 162 0 137 7 163 52 205 12
12 34 26 48 32 36 15 239 12 270 -4z m734 -8 c67 -37 81 -73 82 -212 2 -218
-36 -256 -252 -252 -105 3 -114 4 -149 31 -56 43 -64 72 -62 222 2 127 3 132
30 168 41 53 75 64 202 65 96 1 115 -2 149 -22z m740 -11 c55 -42 66 -76 66
-209 0 -134 -12 -172 -67 -214 -35 -27 -42 -28 -154 -30 -146 -2 -191 15 -226
87 -20 40 -22 57 -19 171 3 112 6 131 25 158 43 59 81 72 217 69 116 -3 122
-4 158 -32z m56 -925 c7 -1 7 -4341 0 -4342 -17 -4 -5973 -3 -5979 1 -9 7 -9
4333 0 4340 6 4 5963 5 5979 1z"/>
<path d="M3812 4408 c-31 -7 -57 -23 -92 -56 -47 -46 -49 -50 -124 -287 -43
-132 -81 -251 -86 -265 -5 -14 -31 -95 -58 -180 -79 -246 -238 -739 -302 -935
-183 -564 -240 -748 -240 -782 0 -65 19 -111 64 -157 98 -98 273 -80 340 37
13 23 65 170 116 327 50 157 116 359 145 450 30 91 72 224 95 295 23 72 47
148 55 170 7 22 57 175 110 340 118 366 163 507 211 650 20 61 39 134 41 163
14 153 -118 263 -275 230z"/>
<path d="M2600 3759 c-67 -32 -159 -75 -245 -114 -160 -72 -192 -87 -216 -100
-14 -8 -80 -39 -145 -69 -65 -29 -159 -73 -209 -96 -49 -23 -137 -64 -195 -91
-126 -58 -161 -84 -189 -142 -46 -95 -23 -214 54 -279 11 -10 40 -27 65 -39
61 -29 171 -80 250 -117 36 -16 106 -49 155 -72 50 -23 146 -68 215 -100 69
-32 170 -79 225 -105 320 -150 344 -158 429 -129 78 27 146 120 146 202 0 47
-23 111 -53 147 -30 37 -108 79 -352 190 -121 55 -172 79 -283 131 -63 30
-118 54 -124 54 -29 0 9 26 96 66 54 24 146 67 204 95 59 28 172 80 252 117
172 78 194 93 228 152 37 62 38 155 2 220 -38 68 -94 102 -177 107 -60 3 -75
0 -133 -28z"/>
<path d="M4161 3756 c-116 -78 -132 -248 -31 -344 34 -33 18 -25 295 -152 33
-15 103 -48 155 -72 52 -25 115 -55 140 -66 25 -11 74 -34 109 -51 l64 -30
-54 -24 c-68 -30 -114 -52 -428 -198 -140 -65 -265 -129 -278 -141 -50 -47
-67 -88 -67 -163 -1 -109 52 -182 152 -211 82 -24 90 -22 412 129 52 24 120
56 150 70 30 13 89 41 131 60 42 20 146 68 230 107 322 149 355 165 391 190
42 29 85 99 90 150 6 53 -9 120 -37 162 -29 44 -66 68 -190 125 -134 62 -210
97 -540 251 -330 153 -394 183 -474 219 -78 35 -157 31 -220 -11z"/>
</g>
</svg>
